# xmcd
#
# Track frame offsets: 
#        150
#        13543
#        29547
#        47604
#        65017
#        83333
#        105068
#        118915
#        132619
#        146239
#        157731
#        173453
#        185014
#        212487
#        230184
#        243537
#        264576
#        281380
#        296307
#        311351
#        329103
#        344206
#
# Disc length: 4785 seconds
#
# Revision: 0
# Processed by: cddbd v1.5.2PL0 Copyright (c) Steve Scherf et al.
# Submitted via: ExactAudioCopy v1.3
#
DISCID=4512af16
DTITLE=Kent DuChaine and Leadbessie - broke and lonely, hungry and homeless 
DTITLE=but still smiling
DYEAR=2012
DGENRE=Blues
TTITLE0=cajun queen
TTITLE1=blues so bad
TTITLE2=16 gauge steel
TTITLE3=edgemont station
TTITLE4=i got the blues
TTITLE5=dues for the blues
TTITLE6=thanks to memphis slim
TTITLE7=lisn
TTITLE8=chain gang
TTITLE9=back home in alabama
TTITLE10=johnny's gone
TTITLE11=marilyn
TTITLE12=loa of love
TTITLE13=friend of mine
TTITLE14=the goose
TTITLE15=tribute to muddy
TTITLE16=mean ole world
TTITLE17=the storm
TTITLE18=she's irresistible
TTITLE19=no place like home
TTITLE20=she's haunting me
TTITLE21=messing with you
EXTD=
EXTT0=
EXTT1=
EXTT2=
EXTT3=
EXTT4=
EXTT5=
EXTT6=
EXTT7=
EXTT8=
EXTT9=
EXTT10=
EXTT11=
EXTT12=
EXTT13=
EXTT14=
EXTT15=
EXTT16=
EXTT17=
EXTT18=
EXTT19=
EXTT20=
EXTT21=
PLAYORDER=
